<?xml version="1.0" standalone="no"?>
<!DOCTYPE svg PUBLIC "-//W3C//DTD SVG 20010904//EN"
 "http://www.w3.org/TR/2001/REC-SVG-20010904/DTD/svg10.dtd">
<svg version="1.0" xmlns="http://www.w3.org/2000/svg"
 width="736.000000pt" height="736.000000pt" viewBox="0 0 736.000000 736.000000"
 preserveAspectRatio="xMidYMid meet">

<g transform="translate(0.000000,736.000000) scale(0.100000,-0.100000)"
fill="#000000" stroke="none">
<path d="M0 3680 l0 -3680 3680 0 3680 0 0 3680 0 3680 -3680 0 -3680 0 0
-3680z m5546 330 c25 -588 -202 -1123 -551 -1302 -108 -55 -162 -70 -286 -75
-86 -4 -136 -1 -200 11 -83 17 -276 89 -324 120 l-25 17 132 111 c484 406 891
839 1167 1239 66 96 66 96 73 65 5 -17 11 -101 14 -186z m-3706 158 c289 -426
720 -886 1218 -1298 56 -46 102 -87 102 -91 0 -11 -175 -88 -266 -115 -79 -25
-105 -28 -239 -28 -139 -1 -156 1 -223 26 -106 39 -175 83 -269 172 -238 226
-380 617 -386 1061 -2 153 10 325 21 325 4 0 23 -24 42 -52z"/>
</g>
</svg>
